<?xml version="1.0" encoding="utf-8"?>
<!-- Generator: Adobe Illustrator 27.5.0, SVG Export Plug-In . SVG Version: 6.00 Build 0)  -->
<svg version="1.1" xmlns="http://www.w3.org/2000/svg" xmlns:xlink="http://www.w3.org/1999/xlink" x="0px" y="0px"
	 viewBox="0 0 750.02 499.78" style="enable-background:new 0 0 750.02 499.78;" xml:space="preserve">
<g id="BACKGROUND">
	<rect x="0.002" y="0.045" style="fill:#192653;" width="750" height="499.85"/>
</g>
<g id="OBJECTS">
	<g>
		<rect x="77.362" y="37.555" style="fill:#010E33;" width="623" height="419"/>
		<g>
			<rect x="68.022" y="29.595" style="fill:#FFFFFF;" width="625.2" height="419.79"/>
			<rect x="68.022" y="30.595" style="opacity:0.67;fill:#FFFFFF;" width="625.2" height="419.79"/>
			<rect x="68.022" y="29.595" style="opacity:0.32;fill:#0F7EB5;" width="269.34" height="420.79"/>
			<polygon style="fill:#0F7EB5;" points="133.762,450.385 68.022,450.385 68.022,373.385 132.912,449.385 			"/>
			<polygon style="fill:#005B7F;" points="176.792,29.595 175.752,30.595 68.022,134.885 68.022,29.595 			"/>
			<polygon style="fill:#005B7F;" points="693.222,59.335 693.222,450.385 422.272,450.385 422.962,449.385 565.582,243.555 
				578.362,225.105 			"/>
			<polygon style="fill:#0F7EB5;" points="693.222,29.595 693.222,46.075 578.362,211.835 556.382,243.555 453.122,392.585 
				431.802,377.815 524.832,243.555 578.362,166.295 672.382,30.595 673.082,29.595 			"/>
			<rect x="68.02" y="29.595" style="fill:#14376D;" width="625.2" height="43.61"/>
			<g>
				<text transform="matrix(1 0 0 1 89.217 65.9973)" style="fill:#FFFFFF; font-family:'OpenSans-Bold'; font-size:8.1706px;">COMPANY</text>
				<g>
					<g>
						<g>
							<polygon style="fill:#03A2E0;" points="107.888,55.642 90.419,55.642 90.419,36.269 115.468,36.269 							"/>
							<polygon style="fill:#03A2E0;" points="129.938,36.269 122.357,55.642 112.342,55.642 119.923,36.269 							"/>
						</g>
					</g>
					<text transform="matrix(1 0 0 1 217.6954 55.2212)" style="fill:#F9FBFC; font-family:'OpenSans-Semibold'; font-size:12px;">HOME</text>
					<text transform="matrix(1 0 0 1 302.0294 55.2212)" style="fill:#F9FBFC; font-family:'OpenSans-Semibold'; font-size:12px;">SERVICES</text>
					<text transform="matrix(1 0 0 1 395.3624 55.2212)" style="fill:#F9FBFC; font-family:'OpenSans-Semibold'; font-size:12px;">CONTACT</text>
				</g>
			</g>
			<g>
				<defs>
					<rect id="SVGID_1_" x="393.362" y="29.595" width="299.86" height="419.79"/>
				</defs>
				<clipPath id="SVGID_00000130629435009263824130000018235114408626228640_">
					<use xlink:href="#SVGID_1_"  style="overflow:visible;"/>
				</clipPath>
			</g>
			<line style="fill:none;" x1="337.362" y1="252.885" x2="337.362" y2="241.555"/>
			<g>
				<rect x="86.365" y="263.555" style="fill:none;" width="217.997" height="67"/>
				<text transform="matrix(1 0 0 1 86.3653 272.6748)"><tspan x="0" y="0" style="fill:#14376D; font-family:'OpenSans'; font-size:12px;">Lorem ipsum dolor sit amet, consecte</tspan><tspan x="210.486" y="0" style="fill:#14376D; font-family:'OpenSans'; font-size:12px;">-</tspan><tspan x="0" y="14.4" style="fill:#14376D; font-family:'OpenSans'; font-size:12px;">tuer adipiscing elit, sed diam nonum</tspan><tspan x="203.203" y="14.4" style="fill:#14376D; font-family:'OpenSans'; font-size:12px;">-</tspan><tspan x="0" y="28.8" style="fill:#14376D; font-family:'OpenSans'; font-size:12px;">my nibh euismod.</tspan></text>
				<g>
					<rect x="132.365" y="337.004" style="fill:#0F7EB5;" width="138" height="39"/>
					<g>
						
							<text transform="matrix(1 0 0 1 149.3643 361.2106)" style="fill:#FFFFFF; font-family:'OpenSans-Bold'; font-size:15.8026px;">STAR NOW</text>
						<polygon style="fill:#FFFFFF;" points="259.365,355.022 245.759,347.167 245.759,362.878 						"/>
					</g>
				</g>
				<rect x="68.022" y="236.555" style="fill:#00183A;" width="269.34" height="11.33"/>
				<g>
					<polygon style="fill:#14376D;" points="68.022,243.555 315.377,243.555 332.461,243.555 337.442,243.555 344.362,243.555 
						344.362,225.105 344.362,211.835 344.362,166.295 344.362,164.555 68.022,164.555 					"/>
					<g>
						
							<text transform="matrix(1 0 0 1 86.3663 211.0254)" style="fill:#FFFFFF; font-family:'OpenSans-Bold'; font-size:48.5948px;">BUSINESS</text>
						<text transform="matrix(1 0 0 1 86.3653 235.2969)" style="fill:#03A2E0; font-family:'OpenSans'; font-size:26.7819px;">LANDING PAGE</text>
					</g>
				</g>
			</g>
		</g>
	</g>
</g>
<g id="DESIGNED_BY_FREEPIK">
	<g>
		<g id="XMLID_3_">
			<g id="XMLID_34_">
				<path id="XMLID_42_" style="fill:#F9FBFC;" d="M385.114,471.611c-0.433,0.443-0.804,0.932-1.108,1.453l-0.465-0.241
					c-0.067-0.297-0.35-0.502-0.659-0.466c-0.331,0.039-0.567,0.339-0.529,0.67c0.039,0.331,0.339,0.567,0.67,0.528
					c0.066-0.007,0.127-0.025,0.184-0.052l0.451,0.234c-0.251,0.554-0.433,1.139-0.539,1.743l0.747,0.132
					c0.23-1.306,0.85-2.507,1.792-3.473L385.114,471.611z"/>
				<path id="XMLID_41_" style="fill:#F9FBFC;" d="M390.601,469.31c-0.171,0-0.341,0.006-0.509,0.017l-0.074-0.626
					c0.188-0.149,0.296-0.389,0.266-0.645c-0.046-0.393-0.402-0.674-0.795-0.628c-0.393,0.046-0.675,0.402-0.628,0.796
					c0.03,0.254,0.189,0.461,0.404,0.563l0.073,0.624c-0.714,0.116-1.403,0.332-2.06,0.646l0.327,0.685
					c0.935-0.447,1.941-0.674,2.995-0.674c0.497,0,0.993,0.053,1.476,0.158l0.16-0.741
					C391.702,469.368,391.152,469.31,390.601,469.31z"/>
				<path id="XMLID_40_" style="fill:#F9FBFC;" d="M397.204,471.857c0.331-0.04,0.566-0.341,0.525-0.672
					c-0.04-0.331-0.341-0.566-0.672-0.525c-0.31,0.038-0.535,0.304-0.53,0.608l-0.416,0.363c-0.418-0.43-0.889-0.813-1.407-1.14
					l-0.404,0.642c1.135,0.715,2.021,1.727,2.563,2.925l0.69-0.313c-0.251-0.554-0.567-1.071-0.942-1.545l0.402-0.351
					C397.075,471.861,397.138,471.865,397.204,471.857z"/>
				<path id="XMLID_39_" style="fill:#F9FBFC;" d="M390.054,479.518c-0.386,0.023-0.775,0.035-1.157,0.035
					c-0.88,0-1.733-0.061-2.479-0.18c-0.391-0.061-0.846-0.154-1.27-0.292c1.047,1.861,3.069,3.125,5.389,3.125
					c2.855,0,5.263-1.916,5.949-4.503c-0.682,0.449-1.505,0.825-2.458,1.122C392.848,479.193,391.473,479.433,390.054,479.518z"/>
				<path id="XMLID_35_" style="fill:#F9FBFC;" d="M390.601,470.826c-3.352,0-6.079,2.666-6.079,5.943
					c0,0.425,0.046,0.849,0.137,1.261c0.674,0.483,2.706,0.891,5.348,0.731c2.88-0.174,5.297-0.958,6.672-2.159
					c-0.005-0.194-0.02-0.39-0.045-0.581C396.254,473.06,393.66,470.826,390.601,470.826z M388.442,477.341
					c-1.02,0-1.85-0.83-1.85-1.85c0-1.021,0.83-1.851,1.85-1.851c1.02,0,1.85,0.83,1.85,1.851
					C390.292,476.511,389.462,477.341,388.442,477.341z M393.179,476.433c-0.75,0-1.36-0.61-1.36-1.36s0.61-1.36,1.36-1.36
					s1.36,0.61,1.36,1.36S393.929,476.433,393.179,476.433z"/>
			</g>
			<path id="XMLID_32_" style="fill:#F9FBFC;" d="M406.605,472.693c-0.295-0.116-0.806-0.31-1.383-0.238
				c-0.551,0.069-0.844,0.341-0.844,1.007v0.866h2.228v1.717h-2.228v5.455h-1.932v-5.455h-1.339v-1.717h1.339v-0.889
				c0-1.68,0.896-2.782,2.568-2.782c0.643,0,1.157,0.121,1.59,0.308V472.693z"/>
			<path id="XMLID_30_" style="fill:#F9FBFC;" d="M411.307,476.024c-0.177-0.029-0.357-0.046-0.525-0.046
				c-0.896,0-1.51,0.548-1.51,1.613v3.908h-1.933v-7.172h1.873v0.784c0.451-0.673,1.139-0.977,2.02-0.977
				c0.414,0,0.848,0.128,1.095,0.337L411.307,476.024z"/>
			<path id="XMLID_23_" style="fill:#F9FBFC;" d="M418.975,477.903c0,0.222-0.016,0.488-0.037,0.651h-5.085
				c0.207,1.036,0.933,1.487,1.843,1.487c0.622,0,1.295-0.252,1.813-0.689l1.133,1.243c-0.814,0.748-1.851,1.089-3.057,1.089
				c-2.198,0-3.724-1.496-3.724-3.753c0-2.258,1.481-3.797,3.627-3.797C417.553,474.136,418.968,475.668,418.975,477.903z
				 M413.861,477.237h3.175c-0.178-0.918-0.732-1.436-1.561-1.436C414.564,475.801,414.031,476.349,413.861,477.237z"/>
			<path id="XMLID_17_" style="fill:#F9FBFC;" d="M426.629,477.903c0,0.222-0.016,0.488-0.037,0.651h-5.085
				c0.207,1.036,0.933,1.487,1.843,1.487c0.622,0,1.296-0.252,1.814-0.689l1.133,1.243c-0.815,0.748-1.851,1.089-3.058,1.089
				c-2.198,0-3.723-1.496-3.723-3.753c0-2.258,1.48-3.797,3.627-3.797C425.207,474.136,426.621,475.668,426.629,477.903z
				 M421.514,477.237h3.175c-0.178-0.918-0.733-1.436-1.562-1.436C422.218,475.801,421.684,476.349,421.514,477.237z"/>
			<path id="XMLID_12_" style="fill:#F9FBFC;" d="M434.974,477.91c0,2.154-1.495,3.775-3.472,3.775
				c-0.962,0-1.643-0.378-2.109-0.933v3.708h-1.925v-10.133h1.888v0.792c0.467-0.585,1.154-0.984,2.139-0.984
				C433.479,474.136,434.974,475.757,434.974,477.91z M429.297,477.91c0,1.133,0.748,1.977,1.844,1.977
				c1.14,0,1.849-0.881,1.849-1.977c0-1.095-0.71-1.976-1.849-1.976C430.045,475.935,429.297,476.778,429.297,477.91z"/>
			<path id="XMLID_8_" style="fill:#F9FBFC;" d="M438.078,471.982c0,0.696-0.541,1.229-1.236,1.229
				c-0.696,0-1.229-0.533-1.229-1.229c0-0.695,0.532-1.243,1.229-1.243C437.537,470.738,438.078,471.286,438.078,471.982z
				 M437.818,481.5h-1.932v-7.172h1.932V481.5z"/>
			<path id="XMLID_5_" style="fill:#F9FBFC;" d="M441.042,476.882l2.702-2.554h2.368l-3.478,3.375l3.501,3.797h-2.376l-2.717-2.901
				v2.901h-1.932v-10.658h1.932V476.882z"/>
		</g>
		<g>
			<path style="fill:#F9FBFC;" d="M309.422,481.436v-1.055c-0.527,0.718-1.391,1.23-2.387,1.23c-1.846,0-3.149-1.406-3.149-3.706
				c0-2.256,1.289-3.721,3.149-3.721c0.952,0,1.816,0.469,2.387,1.245v-3.765h1.099v9.771H309.422z M309.422,479.517v-3.208
				c-0.395-0.615-1.245-1.143-2.124-1.143c-1.42,0-2.27,1.172-2.27,2.739c0,1.567,0.85,2.725,2.27,2.725
				C308.177,480.63,309.027,480.132,309.422,479.517z"/>
			<path style="fill:#F9FBFC;" d="M311.942,477.891c0-2.051,1.465-3.706,3.486-3.706c2.139,0,3.398,1.67,3.398,3.794v0.278h-5.727
				c0.088,1.333,1.025,2.446,2.549,2.446c0.806,0,1.626-0.322,2.182-0.894l0.527,0.718c-0.703,0.703-1.655,1.084-2.812,1.084
				C313.451,481.611,311.942,480.103,311.942,477.891z M315.413,475.093c-1.509,0-2.256,1.274-2.314,2.358h4.644
				C317.728,476.397,317.025,475.093,315.413,475.093z"/>
			<path style="fill:#F9FBFC;" d="M319.617,480.498l0.571-0.791c0.469,0.542,1.362,1.011,2.328,1.011
				c1.085,0,1.671-0.513,1.671-1.216c0-1.714-4.38-0.659-4.38-3.281c0-1.099,0.952-2.036,2.636-2.036
				c1.202,0,2.051,0.454,2.623,1.025l-0.513,0.762c-0.424-0.513-1.201-0.894-2.11-0.894c-0.966,0-1.567,0.483-1.567,1.113
				c0,1.553,4.379,0.527,4.379,3.281c0,1.187-0.951,2.139-2.783,2.139C321.316,481.611,320.335,481.26,319.617,480.498z"/>
			<path style="fill:#F9FBFC;" d="M326.487,472.617c0-0.41,0.337-0.747,0.732-0.747c0.41,0,0.747,0.337,0.747,0.747
				c0,0.41-0.337,0.732-0.747,0.732C326.824,473.35,326.487,473.027,326.487,472.617z M326.677,481.436v-7.075h1.099v7.075H326.677z
				"/>
			<path style="fill:#F9FBFC;" d="M329.592,483.252l0.556-0.82c0.586,0.703,1.289,0.967,2.3,0.967c1.172,0,2.271-0.571,2.271-2.124
				v-1.011c-0.513,0.718-1.377,1.26-2.373,1.26c-1.846,0-3.149-1.377-3.149-3.662c0-2.271,1.289-3.677,3.149-3.677
				c0.952,0,1.802,0.469,2.373,1.245v-1.069h1.099v6.87c0,2.344-1.641,3.076-3.369,3.076
				C331.247,484.307,330.426,484.071,329.592,483.252z M334.719,479.399v-3.091c-0.381-0.615-1.231-1.143-2.109-1.143
				c-1.421,0-2.27,1.128-2.27,2.695c0,1.553,0.849,2.695,2.27,2.695C333.488,480.557,334.338,480.015,334.719,479.399z"/>
			<path style="fill:#F9FBFC;" d="M342.423,481.436v-4.629c0-1.245-0.63-1.641-1.582-1.641c-0.864,0-1.685,0.527-2.094,1.099v5.171
				h-1.099v-7.075h1.099v1.025c0.498-0.586,1.464-1.201,2.519-1.201c1.48,0,2.256,0.747,2.256,2.285v4.966H342.423z"/>
			<path style="fill:#F9FBFC;" d="M344.942,477.891c0-2.051,1.465-3.706,3.486-3.706c2.139,0,3.398,1.67,3.398,3.794v0.278H346.1
				c0.088,1.333,1.025,2.446,2.548,2.446c0.806,0,1.626-0.322,2.183-0.894l0.527,0.718c-0.703,0.703-1.655,1.084-2.813,1.084
				C346.451,481.611,344.942,480.103,344.942,477.891z M348.414,475.093c-1.509,0-2.256,1.274-2.314,2.358h4.643
				C350.728,476.397,350.025,475.093,348.414,475.093z"/>
			<path style="fill:#F9FBFC;" d="M358.36,481.436v-1.055c-0.527,0.718-1.391,1.23-2.388,1.23c-1.845,0-3.149-1.406-3.149-3.706
				c0-2.256,1.289-3.721,3.149-3.721c0.952,0,1.817,0.469,2.388,1.245v-3.765h1.098v9.771H358.36z M358.36,479.517v-3.208
				c-0.396-0.615-1.245-1.143-2.124-1.143c-1.421,0-2.27,1.172-2.27,2.739c0,1.567,0.85,2.725,2.27,2.725
				C357.115,480.63,357.964,480.132,358.36,479.517z"/>
			<path style="fill:#F9FBFC;" d="M364.702,481.436v-9.771h1.099v3.765c0.571-0.776,1.421-1.245,2.388-1.245
				c1.845,0,3.15,1.465,3.15,3.721c0,2.3-1.304,3.706-3.15,3.706c-0.996,0-1.86-0.513-2.388-1.23v1.055H364.702z M367.91,480.63
				c1.436,0,2.285-1.157,2.285-2.725c0-1.567-0.85-2.739-2.285-2.739c-0.864,0-1.729,0.527-2.109,1.143v3.208
				C366.181,480.132,367.046,480.63,367.91,480.63z"/>
			<path style="fill:#F9FBFC;" d="M372.538,483.208c0.161,0.073,0.425,0.117,0.6,0.117c0.484,0,0.806-0.161,1.055-0.747l0.469-1.069
				l-2.959-7.148h1.186l2.358,5.801l2.344-5.801h1.2l-3.544,8.511c-0.425,1.024-1.143,1.421-2.08,1.436
				c-0.234,0-0.601-0.044-0.806-0.104L372.538,483.208z"/>
		</g>
	</g>
</g>
</svg>
