<?xml version="1.0" encoding="utf-8"?>
<!-- Generator: Adobe Illustrator 27.5.0, SVG Export Plug-In . SVG Version: 6.00 Build 0)  -->
<svg version="1.1" id="Layer_1" xmlns="http://www.w3.org/2000/svg" xmlns:xlink="http://www.w3.org/1999/xlink" x="0px" y="0px"
	 viewBox="0 0 1200 1200" style="enable-background:new 0 0 1200 1200;" xml:space="preserve">
<g>
	<g>
		<g>
			<g>
				<g>
					<g>
						<g>
							<g>
								<rect y="0.002" style="fill:#26BDCF;" width="1200.002" height="1199.998"/>
							</g>
						</g>
					</g>
				</g>
			</g>
		</g>
	</g>
</g>
<g>
	<path style="fill:none;stroke:#000000;stroke-width:2.5;stroke-miterlimit:10;stroke-dasharray:6,6;" d="M824.613,549.774H368.497
		c-24.686,0-44.701,21.804-44.701,48.706v2.212c0,26.897,20.015,48.7,44.701,48.7h276.349"/>
	<g>
		<g>
			<g>
				<polygon points="759.816,433.969 751.872,444.138 751.872,440.279 759.816,430.107 767.762,440.279 767.762,444.138 				"/>
			</g>
			<path style="fill:none;stroke:#000000;stroke-width:2.5;stroke-miterlimit:10;" d="M759.816,433.605
				c-0.062,51.158-0.062,103.087,0,154.016"/>
		</g>
		<g>
			<g>
				<polygon points="737.891,459.385 729.946,469.554 729.946,465.694 737.891,455.523 745.836,465.694 745.836,469.554 				"/>
			</g>
			<path style="fill:none;stroke:#000000;stroke-width:2.5;stroke-miterlimit:10;" d="M737.891,459.021
				c0.56,43.052,0.56,85.661,0,128.621"/>
		</g>
	</g>
	<g>
		<g>
			<polygon points="345.97,768.093 356.138,776.038 352.278,776.038 342.107,768.093 352.278,760.148 356.138,760.148 			"/>
		</g>
		<path style="fill:none;stroke:#000000;stroke-width:2.5;stroke-miterlimit:10;stroke-dasharray:6,6;" d="M352.548,768.684h456.113
			c24.688,0,44.701-21.805,44.701-48.704v-2.214c0-26.897-20.014-48.699-44.701-48.699H532.313"/>
	</g>
	<g>
		<path style="fill:#FFFFFF;" d="M341.068,635.702c0,13.911-1.382,19.461-2.229,21.554c-1.412,3.134-4.239,6.694-13.43,6.694
			c-5.785,0-9.569-1.916-12.306-6.271c-1.124-1.752-3.074-6.426-3.499-18.035l-0.288-7.851l-49.917,5.342l0.033,6.613
			c0.207,43.048,22.581,65.801,64.708,65.801c33.772,0,55.501-13.305,64.587-39.548c3.022-8.733,4.491-20.706,4.491-36.606v-120.69
			h-52.15V635.702z"/>
		<path style="fill:#FFFFFF;" d="M508.137,509.584c-29.042,0-52.36,8.525-69.316,25.346c-18.554,18.451-27.96,43.906-27.96,75.656
			c0,29.603,8.555,53.593,25.432,71.312c17.524,18.35,41.887,27.652,72.41,27.652c30.466,0,54.756-9.51,72.179-28.25
			c16.654-17.797,25.099-41.863,25.099-71.528c0-29.75-8.488-53.948-25.225-71.92C563.314,519.095,538.881,509.584,508.137,509.584z
			 M552.417,608.955c0,16.137-3.402,29.21-10.09,38.832c-7.637,10.877-18.682,16.163-33.767,16.163
			c-15.029,0-26.09-5.222-33.805-15.943c-6.951-9.722-10.477-22.723-10.477-38.643c0-16.267,3.423-29.26,10.181-38.622
			c7.539-10.468,18.692-15.557,34.1-15.557c15.396,0,26.455,4.994,33.814,15.281C549.038,579.733,552.417,592.684,552.417,608.955z"
			/>
		<path style="fill:#FFFFFF;" d="M764.793,602.394c3.42-2.936,6.421-6.314,8.985-10.114c5.508-8.167,8.301-17.31,8.301-27.175
			c0-17.744-7.791-31.902-23.226-42.128c-7.487-4.839-17.063-8.002-28.576-9.413c-5.386-0.576-14.496-0.856-27.85-0.856h-81.626
			v193.721h70.628c22.941,0,37.998-0.411,46.054-1.261c11.107-1.213,20.707-4.497,28.531-9.76
			c16.741-11.262,25.229-27.467,25.229-48.164C791.244,626.751,782.163,611.473,764.793,602.394z M700.454,661.642h-27.503v-33.278
			h22.99c21.289,0,28.628,1.382,31.088,2.2c7.567,2.536,10.795,6.996,10.795,14.914c0,9.084-3.74,13.49-12.895,15.198
			C722.535,661.116,716.346,661.642,700.454,661.642z M716.754,583.344c-2.205,0.23-8.582,0.504-26.45,0.504h-17.353v-26.762h14.25
			c21.754,0,28.989,0.338,31.309,0.63c10.296,1.186,12.408,5.873,12.408,12.547C730.918,576.19,729.188,581.877,716.754,583.344z"/>
		<path style="fill:#FFFFFF;" d="M932.683,593.572c-6.554-3.254-20.184-7.43-41.676-12.768c-23.74-5.888-30.237-9.77-31.925-11.165
			l-0.109-0.087c-2.531-2.01-2.871-3.72-2.871-5.127c0-2.234,0.824-3.729,2.741-5.094c4.934-3.382,12.174-5.097,21.518-5.097
			c8.655,0,15.063,1.423,18.977,4.181c4,2.887,6.665,8.108,7.924,15.519l1.08,6.346l51.397-2.04l-0.295-7.32
			c-0.847-21.225-9.445-37.387-25.585-48.059c-13.468-8.81-31.324-13.277-53.074-13.277c-15.174,0-28.442,2.286-39.436,6.792
			c-10.723,4.397-19.369,11.025-25.668,19.661c-6.754,9.123-10.179,19.497-10.179,30.831c0,16.378,6.645,30.397,19.741,41.66
			c9.063,7.817,23.91,14.107,45.379,19.228c15.585,3.731,25.512,6.313,29.54,7.692c12.356,4.16,12.356,9.608,12.356,11.657
			c0,5.704-2.635,9.656-8.509,12.807c-5.579,2.948-12.538,4.447-20.685,4.447c-19.222,0-29.834-8.97-33.405-28.228l-1.22-6.574
			l-50.679,4.709l0.911,7.479c2.718,22.329,11.333,39.441,25.605,50.858c14.054,11.245,33.691,16.945,58.363,16.945
			c17.029,0,31.562-2.369,43.181-7.037c11.739-4.684,21.195-12.095,28.11-22.032c6.951-9.992,10.478-21.266,10.478-33.51
			C964.667,622.374,953.933,604.422,932.683,593.572z"/>
	</g>
	<path style="fill:#FFFFFF;stroke:#26BDCF;stroke-width:2.5;stroke-miterlimit:10;" d="M994.658,497.379
		c-0.487-1.274-0.751-2.65-0.751-4.091c0-6.342,5.142-11.484,11.486-11.484c5.147,0,9.5,3.383,10.96,8.051
		c1.359-1.914,3.591-3.165,6.119-3.165c4.142,0,7.497,3.358,7.497,7.498c0,1.083-0.229,2.112-0.643,3.04h4.192
		c2.829,0,5.125,2.294,5.125,5.129c0,2.824-2.296,5.124-5.125,5.124h-37.642c-2.827,0-5.121-2.299-5.121-5.124
		C990.757,499.946,992.419,497.925,994.658,497.379z"/>
	<path style="fill:#FFFFFF;stroke:#26BDCF;stroke-width:2.5;stroke-miterlimit:10;" d="M143.212,692.9
		c-0.486-1.273-0.751-2.649-0.751-4.09c0-6.343,5.142-11.484,11.487-11.484c5.147,0,9.501,3.383,10.959,8.051
		c1.36-1.914,3.592-3.164,6.12-3.164c4.143,0,7.497,3.356,7.497,7.497c0,1.082-0.229,2.111-0.643,3.04h4.192
		c2.83,0,5.126,2.294,5.126,5.129c0,2.824-2.296,5.123-5.126,5.123h-37.641c-2.827,0-5.121-2.299-5.121-5.123
		C139.311,695.468,140.973,693.447,143.212,692.9z"/>
	<g>
		<rect x="781.549" y="812.338" style="fill:#FFFFFF;" width="13.087" height="13.086"/>
		<g>
			<path d="M785.058,825.986c-0.333,0-0.65-0.18-0.885-0.5l-2.003-2.72c-0.465-0.63-0.444-1.634,0.042-2.234
				c0.489-0.604,1.261-0.587,1.725,0.045l1.048,1.433l3.539-5.606c0.427-0.678,1.202-0.771,1.719-0.215
				c0.518,0.549,0.597,1.552,0.167,2.229l-4.411,6.982c-0.223,0.357-0.548,0.567-0.893,0.58
				C785.089,825.986,785.068,825.986,785.058,825.986L785.058,825.986z"/>
		</g>
		<g>
			<rect x="798.586" y="815.43" width="55.406" height="2.117"/>
			<rect x="798.586" y="822.217" width="36.448" height="2.128"/>
		</g>
	</g>
	<g>
		<rect x="556.105" y="734.102" style="fill:#FFFFFF;" width="13.087" height="13.087"/>
		<g>
			<path d="M559.613,747.751c-0.333,0-0.65-0.179-0.883-0.499l-2.004-2.721c-0.465-0.629-0.445-1.633,0.042-2.233
				c0.489-0.604,1.261-0.588,1.725,0.044l1.048,1.433l3.54-5.604c0.426-0.678,1.203-0.772,1.719-0.215
				c0.518,0.548,0.596,1.552,0.167,2.228l-4.411,6.982c-0.224,0.358-0.547,0.567-0.895,0.581
				C559.644,747.751,559.624,747.751,559.613,747.751L559.613,747.751z"/>
		</g>
		<g>
			<rect x="573.142" y="737.195" width="55.407" height="2.117"/>
			<rect x="573.142" y="743.982" width="36.449" height="2.127"/>
		</g>
	</g>
	<g>
		<rect x="159.017" y="560.932" style="fill:#FFFFFF;" width="13.087" height="13.087"/>
		<rect x="159.017" y="581.321" style="fill:#FFFFFF;" width="13.087" height="13.089"/>
		<g>
			<rect x="159.017" y="540.541" style="fill:#FFFFFF;" width="13.087" height="13.087"/>
			<g>
				<path d="M162.525,554.188c-0.333,0-0.65-0.176-0.883-0.499l-2.004-2.721c-0.465-0.629-0.444-1.633,0.042-2.233
					c0.489-0.601,1.261-0.588,1.724,0.044l1.048,1.433l3.539-5.602c0.426-0.681,1.203-0.775,1.719-0.218
					c0.518,0.549,0.596,1.553,0.167,2.229l-4.411,6.985c-0.224,0.353-0.548,0.564-0.895,0.578
					C162.557,554.188,162.536,554.188,162.525,554.188L162.525,554.188z"/>
			</g>
			<g>
				<rect x="176.054" y="543.632" width="55.406" height="2.117"/>
				<rect x="176.054" y="550.42" width="36.448" height="2.127"/>
			</g>
		</g>
		<g>
			<rect x="176.054" y="563.353" width="55.406" height="2.114"/>
			<rect x="176.054" y="570.138" width="36.448" height="2.127"/>
		</g>
		<g>
			<rect x="176.054" y="583.073" width="55.406" height="2.115"/>
			<rect x="176.054" y="589.858" width="36.448" height="2.128"/>
		</g>
	</g>
	<g>
		<rect x="978.615" y="680.934" style="fill:#FFFFFF;" width="13.086" height="13.088"/>
		<rect x="978.615" y="701.324" style="fill:#FFFFFF;" width="13.086" height="13.086"/>
		<g>
			<rect x="978.615" y="660.544" style="fill:#FFFFFF;" width="13.086" height="13.087"/>
			<g>
				<path d="M982.123,674.192c-0.333,0-0.65-0.18-0.882-0.5l-2.005-2.72c-0.466-0.629-0.444-1.634,0.041-2.234
					c0.489-0.603,1.262-0.588,1.726,0.044l1.048,1.434l3.539-5.604c0.427-0.68,1.204-0.772,1.72-0.216
					c0.517,0.548,0.595,1.553,0.165,2.229l-4.409,6.982c-0.225,0.357-0.547,0.567-0.896,0.58
					C982.154,674.192,982.134,674.192,982.123,674.192L982.123,674.192z"/>
			</g>
			<g>
				<rect x="995.651" y="663.636" width="55.407" height="2.117"/>
				<rect x="995.651" y="670.424" width="36.448" height="2.127"/>
			</g>
		</g>
		<g>
			<rect x="995.651" y="683.356" width="55.407" height="2.114"/>
			<rect x="995.651" y="690.142" width="36.448" height="2.127"/>
		</g>
		<g>
			<rect x="995.651" y="703.075" width="55.407" height="2.116"/>
			<rect x="995.651" y="709.861" width="36.448" height="2.129"/>
		</g>
	</g>
	<path style="fill:none;stroke:#FFFFFF;stroke-width:2.5;stroke-miterlimit:10;stroke-dasharray:6,6;" d="M249.745,566.129
		c55.12,0.222,111.044,1.554,165.637-1.109c21.304-1.331,35.951-19.973,38.614-41.277c1.332-9.321-1.332-17.31-2.664-26.63
		c-3.995-11.984-11.983-19.973-22.635-26.63c-13.315-6.658-29.294-3.995-44.443-3.97"/>
	<path style="fill:none;stroke:#FFFFFF;stroke-width:2.5;stroke-miterlimit:10;stroke-dasharray:6,6;" d="M833.845,487.799
		c-55.121-0.223-111.046-1.554-165.638,1.109c-21.305,1.332-35.951,19.973-38.614,41.278c-1.332,9.32,1.331,17.31,2.663,26.63
		c3.994,11.984,11.983,19.973,22.636,26.63c13.315,6.658,29.294,3.995,44.442,3.97"/>
	<g>
		<polygon style="fill:#FFFFFF;" points="384.229,465.888 394.397,457.943 390.538,457.943 380.367,465.888 390.538,473.833 
			394.397,473.833 		"/>
	</g>
	<path style="fill:#FFFFFF;stroke:#26BDCF;stroke-width:2.5;stroke-miterlimit:10;" d="M444.33,408.445
		c-0.486-1.272-0.752-2.65-0.752-4.088c0-6.346,5.142-11.487,11.487-11.487c5.146,0,9.5,3.383,10.959,8.052
		c1.36-1.914,3.592-3.165,6.119-3.165c4.143,0,7.497,3.357,7.497,7.5c0,1.079-0.229,2.109-0.642,3.04h4.192
		c2.83,0,5.126,2.291,5.126,5.126c0,2.824-2.297,5.123-5.126,5.123h-37.642c-2.827,0-5.12-2.299-5.12-5.123
		C440.429,411.012,442.091,408.991,444.33,408.445z"/>
	<g>
		<g>
			<path style="fill:#FFFFFF;" d="M275.165,475.799c0,14.363-11.433,26.009-25.536,26.009c-14.101,0-25.533-11.646-25.533-26.009
				c0-14.369,11.433-26.012,25.533-26.012C263.732,449.788,275.165,461.431,275.165,475.799z"/>
			
				<line style="fill:none;stroke:#000000;stroke-width:2;stroke-miterlimit:10;" x1="224.39" y1="475.799" x2="274.868" y2="475.799"/>
			<path style="fill:none;stroke:#000000;stroke-width:2;stroke-miterlimit:10;" d="M266.101,455.929
				c-3.825,4.927-9.781,8.094-16.472,8.094s-12.647-3.167-16.473-8.094"/>
			<path style="fill:none;stroke:#000000;stroke-width:2;stroke-miterlimit:10;" d="M233.156,495.665
				c3.826-5.378,9.781-8.84,16.473-8.84s12.647,3.461,16.472,8.84"/>
			<path style="fill:none;stroke:#000000;stroke-width:2;stroke-miterlimit:10;" d="M262.31,475.797
				c0-11.602-5.246-21.53-12.681-25.661c-7.436,4.131-12.678,14.059-12.678,25.661c0,11.601,5.243,21.531,12.678,25.657
				C257.064,497.328,262.31,487.398,262.31,475.797z"/>
		</g>
		
			<line style="fill:none;stroke:#000000;stroke-width:2;stroke-miterlimit:10;" x1="249.629" y1="450.092" x2="249.629" y2="501.504"/>
	</g>
	<g>
		<g>
			
				<line style="fill:none;stroke:#000000;stroke-width:2.3;stroke-miterlimit:10;" x1="308.215" y1="812.687" x2="364.136" y2="812.687"/>
			
				<line style="fill:none;stroke:#000000;stroke-width:2.3;stroke-miterlimit:10;" x1="280.254" y1="812.687" x2="298.429" y2="812.687"/>
		</g>
		<g>
			
				<line style="fill:none;stroke:#000000;stroke-width:2.3;stroke-miterlimit:10;" x1="308.215" y1="829.286" x2="364.136" y2="829.286"/>
			
				<line style="fill:none;stroke:#000000;stroke-width:2.3;stroke-miterlimit:10;" x1="280.254" y1="829.286" x2="298.429" y2="829.286"/>
		</g>
		<g>
			
				<line style="fill:none;stroke:#000000;stroke-width:2.3;stroke-miterlimit:10;" x1="308.215" y1="820.987" x2="364.136" y2="820.987"/>
			
				<line style="fill:none;stroke:#000000;stroke-width:2.3;stroke-miterlimit:10;" x1="280.254" y1="820.987" x2="298.429" y2="820.987"/>
		</g>
	</g>
	<g>
		<g>
			
				<line style="fill:none;stroke:#000000;stroke-width:2.3;stroke-miterlimit:10;" x1="927.343" y1="421.236" x2="983.264" y2="421.236"/>
			
				<line style="fill:none;stroke:#000000;stroke-width:2.3;stroke-miterlimit:10;" x1="899.383" y1="421.236" x2="917.558" y2="421.236"/>
		</g>
		<g>
			
				<line style="fill:none;stroke:#000000;stroke-width:2.3;stroke-miterlimit:10;" x1="927.343" y1="437.837" x2="983.264" y2="437.837"/>
			
				<line style="fill:none;stroke:#000000;stroke-width:2.3;stroke-miterlimit:10;" x1="899.383" y1="437.837" x2="917.558" y2="437.837"/>
		</g>
		<g>
			
				<line style="fill:none;stroke:#000000;stroke-width:2.3;stroke-miterlimit:10;" x1="927.343" y1="429.537" x2="983.264" y2="429.537"/>
			
				<line style="fill:none;stroke:#000000;stroke-width:2.3;stroke-miterlimit:10;" x1="899.383" y1="429.537" x2="917.558" y2="429.537"/>
		</g>
	</g>
	<g>
		<g>
			
				<line style="fill:none;stroke:#000000;stroke-width:2;stroke-miterlimit:10;" x1="320.822" y1="411.271" x2="350.113" y2="411.271"/>
			
				<line style="fill:none;stroke:#000000;stroke-width:2;stroke-miterlimit:10;" x1="306.175" y1="411.271" x2="315.696" y2="411.271"/>
		</g>
		<g>
			
				<line style="fill:none;stroke:#000000;stroke-width:2;stroke-miterlimit:10;" x1="320.822" y1="425.185" x2="350.113" y2="425.185"/>
			
				<line style="fill:none;stroke:#000000;stroke-width:2;stroke-miterlimit:10;" x1="306.175" y1="425.185" x2="315.696" y2="425.185"/>
		</g>
		<g>
			
				<line style="fill:none;stroke:#000000;stroke-width:2;stroke-miterlimit:10;" x1="320.822" y1="418.228" x2="350.113" y2="418.228"/>
			
				<line style="fill:none;stroke:#000000;stroke-width:2;stroke-miterlimit:10;" x1="306.175" y1="418.228" x2="315.696" y2="418.228"/>
		</g>
	</g>
	<g>
		
			<rect x="224.419" y="753.131" style="fill:none;stroke:#000000;stroke-width:2;stroke-miterlimit:10;" width="19.604" height="19.604"/>
		
			<line style="fill:none;stroke:#000000;stroke-width:2;stroke-miterlimit:10;" x1="224.419" y1="753.131" x2="243.237" y2="772.482"/>
	</g>
	<g>
		
			<line style="fill:none;stroke:#000000;stroke-width:2;stroke-miterlimit:10;" x1="501.024" y1="801.019" x2="530.346" y2="801.019"/>
		
			<line style="fill:none;stroke:#000000;stroke-width:2;stroke-miterlimit:10;" x1="501.024" y1="809.422" x2="530.346" y2="809.422"/>
	</g>
	<g>
		<g>
			
				<rect x="896.04" y="745.486" style="fill:none;stroke:#000000;stroke-width:2;stroke-miterlimit:10;" width="19.605" height="19.604"/>
			
				<line style="fill:none;stroke:#000000;stroke-width:2;stroke-miterlimit:10;" x1="896.04" y1="745.486" x2="914.86" y2="764.838"/>
		</g>
		<g>
			
				<line style="fill:none;stroke:#000000;stroke-width:2;stroke-miterlimit:10;" x1="921.102" y1="751.085" x2="950.426" y2="751.085"/>
			
				<line style="fill:none;stroke:#000000;stroke-width:2;stroke-miterlimit:10;" x1="921.102" y1="759.488" x2="950.426" y2="759.488"/>
		</g>
	</g>
	<g>
		
			<line style="fill:none;stroke:#000000;stroke-width:2;stroke-miterlimit:10;" x1="436.341" y1="372.474" x2="445.163" y2="381.544"/>
		
			<line style="fill:none;stroke:#000000;stroke-width:2;stroke-miterlimit:10;" x1="445.163" y1="372.474" x2="436.341" y2="381.544"/>
	</g>
	<g>
		
			<line style="fill:none;stroke:#000000;stroke-width:2;stroke-miterlimit:10;" x1="868.494" y1="405.434" x2="877.314" y2="414.505"/>
		
			<line style="fill:none;stroke:#000000;stroke-width:2;stroke-miterlimit:10;" x1="877.314" y1="405.434" x2="868.494" y2="414.505"/>
	</g>
	<g>
		
			<line style="fill:none;stroke:#000000;stroke-width:2;stroke-miterlimit:10;" x1="1023.543" y1="801.476" x2="1032.365" y2="810.546"/>
		
			<line style="fill:none;stroke:#000000;stroke-width:2;stroke-miterlimit:10;" x1="1032.365" y1="801.476" x2="1023.543" y2="810.546"/>
	</g>
	<g>
		
			<line style="fill:none;stroke:#000000;stroke-width:2;stroke-miterlimit:10;" x1="167.373" y1="716.257" x2="176.195" y2="725.328"/>
		
			<line style="fill:none;stroke:#000000;stroke-width:2;stroke-miterlimit:10;" x1="176.195" y1="716.257" x2="167.373" y2="725.328"/>
	</g>
	<g>
		<g>
			
				<rect x="712.564" y="368.879" style="fill:none;stroke:#000000;stroke-width:2;stroke-miterlimit:10;" width="14.828" height="14.83"/>
			
				<line style="fill:none;stroke:#000000;stroke-width:2;stroke-miterlimit:10;" x1="712.564" y1="368.879" x2="726.801" y2="383.517"/>
		</g>
		<g>
			
				<line style="fill:none;stroke:#000000;stroke-width:2;stroke-miterlimit:10;" x1="731.521" y1="373.116" x2="756.682" y2="373.116"/>
			
				<line style="fill:none;stroke:#000000;stroke-width:2;stroke-miterlimit:10;" x1="731.521" y1="379.47" x2="756.682" y2="379.47"/>
		</g>
	</g>
	<g>
		<path style="fill:none;stroke:#000000;stroke-width:2;stroke-miterlimit:10;" d="M312.117,497.004c0,4.77-3.864,8.636-8.634,8.636
			s-8.637-3.867-8.637-8.636c0-4.768,3.868-8.634,8.637-8.634S312.117,492.237,312.117,497.004z"/>
		<polyline style="fill:none;stroke:#000000;stroke-width:2;stroke-miterlimit:10;" points="297.926,495.095 302.126,499.301 
			314.311,489.147 		"/>
	</g>
	<g>
		<path style="fill:none;stroke:#000000;stroke-width:2;stroke-miterlimit:10;" d="M733.408,748.539
			c0,4.769-3.864,8.637-8.633,8.637c-4.771,0-8.638-3.867-8.638-8.637c0-4.767,3.867-8.634,8.638-8.634
			C729.544,739.905,733.408,743.773,733.408,748.539z"/>
		<polyline style="fill:none;stroke:#000000;stroke-width:2;stroke-miterlimit:10;" points="719.217,746.627 723.418,750.835 
			735.602,740.68 		"/>
	</g>
	<g>
		<path style="fill:none;stroke:#000000;stroke-width:2;stroke-miterlimit:10;" d="M1077.04,538.947c0,4.77-3.865,8.636-8.634,8.636
			c-4.771,0-8.638-3.867-8.638-8.636c0-4.768,3.867-8.634,8.638-8.634C1073.175,530.313,1077.04,534.179,1077.04,538.947z"/>
		<polyline style="fill:none;stroke:#000000;stroke-width:2;stroke-miterlimit:10;" points="1062.848,537.036 1067.048,541.243 
			1079.233,531.087 		"/>
	</g>
	<g>
		<path style="fill:none;stroke:#000000;stroke-width:2;stroke-miterlimit:10;" d="M214.114,656.663
			c0,4.771-3.864,8.638-8.634,8.638c-4.769,0-8.636-3.867-8.636-8.638c0-4.767,3.867-8.633,8.636-8.633
			C210.249,648.03,214.114,651.896,214.114,656.663z"/>
		<polyline style="fill:none;stroke:#000000;stroke-width:2;stroke-miterlimit:10;" points="199.922,654.752 204.122,658.96 
			216.307,648.805 		"/>
	</g>
	<g>
		<path style="fill:none;stroke:#000000;stroke-width:2;stroke-miterlimit:10;" d="M954.442,479.57c0,4.77-3.864,8.637-8.635,8.637
			c-4.769,0-8.637-3.868-8.637-8.637c0-4.767,3.867-8.634,8.637-8.634C950.578,470.936,954.442,474.803,954.442,479.57z"/>
		<polyline style="fill:none;stroke:#000000;stroke-width:2;stroke-miterlimit:10;" points="940.25,477.66 944.45,481.867 
			956.635,471.711 		"/>
	</g>
	<g>
		<g>
			<path style="fill:none;stroke:#000000;stroke-width:2.5;stroke-miterlimit:10;" d="M872.157,644.165
				c-9.929-8.699-25.61-8.314-35.028,0.858c-9.418,9.17-9,23.653,0.93,32.347"/>
			<path style="fill:none;stroke:#000000;stroke-width:2.5;stroke-miterlimit:10;" d="M877.507,650.974
				c-0.655-1.288-1.453-2.513-2.366-3.664"/>
		</g>
		<g>
			<g>
				<path style="fill:none;stroke:#000000;stroke-width:2.5;stroke-miterlimit:10;" d="M809.318,661.831
					c0,25.359,20.545,45.893,45.893,45.893c25.333,0,45.875-20.534,45.875-45.893c0-25.32-20.542-45.854-45.875-45.854
					C829.863,615.977,809.318,636.511,809.318,661.831z"/>
				<path style="fill:none;stroke:#000000;stroke-width:2.5;stroke-miterlimit:10;" d="M823.513,661.831
					c0,17.536,14.184,31.717,31.699,31.717c17.518,0,31.713-14.181,31.713-31.717c0-17.479-14.195-31.692-31.713-31.692
					C837.696,630.14,823.513,644.352,823.513,661.831z"/>
				<path style="fill:none;stroke:#000000;stroke-width:2.5;stroke-miterlimit:10;" d="M839.39,661.831
					c0,8.743,7.089,15.831,15.822,15.831s15.81-7.088,15.81-15.831c0-8.712-7.076-15.791-15.81-15.791
					S839.39,653.119,839.39,661.831z"/>
				<g>
					<g>
						<polygon style="fill:none;stroke:#000000;stroke-width:2.5;stroke-linejoin:round;stroke-miterlimit:10;" points="
							824.665,631.303 826.776,620.79 810.848,604.838 808.724,615.351 						"/>
						<polygon style="fill:none;stroke:#000000;stroke-width:2.5;stroke-linejoin:round;stroke-miterlimit:10;" points="
							824.171,630.934 813.654,633.067 797.732,617.127 808.236,615.005 						"/>
					</g>
				</g>
			</g>
			
				<line style="fill:none;stroke:#000000;stroke-width:2.5;stroke-linejoin:round;stroke-miterlimit:10;" x1="856.361" y1="662.893" x2="802.469" y2="609.114"/>
		</g>
	</g>
	
		<line style="fill:#F59121;stroke:#000000;stroke-width:3;stroke-miterlimit:10;" x1="341.068" y1="512.706" x2="393.218" y2="512.706"/>
	<g>
		<g>
			<path style="fill:none;stroke:#000000;stroke-width:2.5;stroke-miterlimit:10;" d="M470.222,646.883
				c-21.359-21.361-21.356-56.122,0-77.478c21.362-21.359,56.119-21.362,77.477,0c21.36,21.356,21.357,56.117-0.003,77.475
				C526.34,668.237,491.58,668.239,470.222,646.883z"/>
			<g>
				<path style="fill:none;stroke:#000000;stroke-width:2.5;stroke-miterlimit:10;" d="M551.12,573.169l6.107-7.191l2.17-0.16
					c1.449-0.217,2.849-0.856,3.97-1.979c2.758-2.755,2.753-7.224-0.005-9.981c-2.752-2.758-7.226-2.766-9.985-0.006
					c-1.12,1.119-1.761,2.519-1.973,3.968l-0.027,2.026l-7.326,6.237c1.251,1.046,2.473,2.145,3.648,3.321
					C548.913,570.615,550.045,571.877,551.12,573.169z"/>
				<path style="fill:none;stroke:#000000;stroke-width:2.5;stroke-miterlimit:10;" d="M512.606,553.519l-0.815-9.985l1.424-1.644
					c0.87-1.181,1.408-2.619,1.408-4.208c0-3.898-3.166-7.053-7.066-7.053c-3.892-0.006-7.061,3.155-7.061,7.058
					c0,1.582,0.537,3.025,1.412,4.201l1.414,1.449l-0.839,10.446C505.843,553.384,509.231,553.297,512.606,553.519z"/>
				<path style="fill:none;stroke:#000000;stroke-width:2.5;stroke-miterlimit:10;" d="M472.545,567.224l-8.751-7.432l-0.157-2.166
					c-0.22-1.45-0.856-2.85-1.98-3.974c-2.757-2.756-7.226-2.749-9.983,0.008c-2.754,2.751-2.763,7.226-0.002,9.986
					c1.118,1.116,2.518,1.76,3.968,1.969l2.025,0.027l7.819,9.188c1.446-1.882,3.015-3.703,4.737-5.425
					C470.977,568.649,471.758,567.925,472.545,567.224z"/>
				<path style="fill:none;stroke:#000000;stroke-width:2.5;stroke-miterlimit:10;" d="M454.361,604.167l-13.009,1.06l-1.644-1.419
					c-1.181-0.871-2.622-1.41-4.209-1.41c-3.898,0-7.053,3.163-7.053,7.064c-0.005,3.896,3.155,7.063,7.059,7.063
					c1.579,0,3.022-0.536,4.198-1.412l1.452-1.412l13.463,1.084C454.192,611.26,454.106,607.704,454.361,604.167z"/>
				<path style="fill:none;stroke:#000000;stroke-width:2.5;stroke-miterlimit:10;" d="M466.498,642.761l-8.886,10.464l-2.169,0.16
					c-1.45,0.218-2.85,0.855-3.971,1.978c-2.757,2.756-2.75,7.225,0.008,9.981c2.749,2.761,7.223,2.768,9.986,0.004
					c1.116-1.116,1.757-2.516,1.969-3.967l0.027-2.023l10.582-9.008c-1.314-1.09-2.592-2.237-3.822-3.467
					C468.897,645.56,467.657,644.18,466.498,642.761z"/>
				<path style="fill:none;stroke:#000000;stroke-width:2.5;stroke-miterlimit:10;" d="M542.058,651.782l8.986,7.628l0.157,2.168
					c0.22,1.449,0.858,2.848,1.98,3.972c2.756,2.757,7.225,2.752,9.983-0.007c2.755-2.749,2.763-7.226,0.003-9.984
					c-1.116-1.116-2.519-1.762-3.967-1.972l-2.026-0.026l-7.482-8.786c-0.644,0.712-1.308,1.417-1.996,2.105
					C545.906,648.667,544.019,650.292,542.058,651.782z"/>
				<path style="fill:none;stroke:#000000;stroke-width:2.5;stroke-miterlimit:10;" d="M579.334,602.677
					c-1.579,0-3.022,0.536-4.198,1.413l-1.452,1.412l-10.09-0.81c0.211,3.373,0.112,6.76-0.297,10.113l10.189-0.831l1.648,1.422
					c1.179,0.869,2.619,1.407,4.206,1.407c3.901,0,7.055-3.165,7.053-7.064C586.397,605.848,583.238,602.677,579.334,602.677z"/>
			</g>
			<g>
				
					<line style="fill:#26BDCF;stroke:#000000;stroke-width:2.5;stroke-miterlimit:10;" x1="533.277" y1="574.347" x2="516.024" y2="598.368"/>
				
					<line style="fill:#26BDCF;stroke:#000000;stroke-width:2.5;stroke-miterlimit:10;" x1="506.146" y1="567.026" x2="508.376" y2="596.513"/>
				
					<line style="fill:#26BDCF;stroke:#000000;stroke-width:2.5;stroke-miterlimit:10;" x1="482.914" y1="581.11" x2="501.325" y2="600.021"/>
				
					<line style="fill:#26BDCF;stroke:#000000;stroke-width:2.5;stroke-miterlimit:10;" x1="468.748" y1="604.308" x2="498.172" y2="607.235"/>
				
					<line style="fill:#26BDCF;stroke:#000000;stroke-width:2.5;stroke-miterlimit:10;" x1="475.979" y1="631.461" x2="500.405" y2="614.788"/>
				
					<line style="fill:#26BDCF;stroke:#000000;stroke-width:2.5;stroke-miterlimit:10;" x1="498.966" y1="647.613" x2="506.964" y2="619.14"/>
				
					<line style="fill:#26BDCF;stroke:#000000;stroke-width:2.5;stroke-miterlimit:10;" x1="525.74" y1="642.758" x2="514.786" y2="618.263"/>
				
					<line style="fill:#26BDCF;stroke:#000000;stroke-width:2.5;stroke-miterlimit:10;" x1="546.862" y1="625.37" x2="520.208" y2="612.555"/>
				
					<line style="fill:#26BDCF;stroke:#000000;stroke-width:2.5;stroke-miterlimit:10;" x1="549.354" y1="597.387" x2="520.702" y2="604.7"/>
			</g>
			<g>
				<path style="fill:none;stroke:#000000;stroke-width:2.5;stroke-miterlimit:10;" d="M491.352,573.224
					c18.691-10.793,42.591-4.386,53.384,14.3c10.79,18.693,4.388,42.59-14.301,53.384"/>
				<path style="fill:#26BDCF;stroke:#000000;stroke-width:2.5;stroke-miterlimit:10;" d="M480.438,582.565
					c1.525-1.89,3.229-3.642,5.084-5.217"/>
			</g>
		</g>
		<g>
			<path style="fill:#FFFFFF;stroke:#000000;stroke-width:2.5;stroke-miterlimit:10;" d="M519.913,677.583v-69.15
				c0-6.9-5.596-12.494-12.494-12.494c-6.901,0-12.494,5.593-12.494,12.494v68.807"/>
		</g>
		
			<line style="fill:#26BDCF;stroke:#000000;stroke-width:2.5;stroke-miterlimit:10;" x1="483.585" y1="682.766" x2="511.32" y2="682.766"/>
		
			<line style="fill:#26BDCF;stroke:#000000;stroke-width:2.5;stroke-miterlimit:10;" x1="514.71" y1="682.766" x2="523.421" y2="682.766"/>
	</g>
	<g>
		<g>
			<path style="fill:none;stroke:#000000;stroke-width:2.7;stroke-miterlimit:10;" d="M657.151,576.405v-49.3
				c0.343,0.01,0.679,0.033,1.021,0.033c18.092,0,33.19-12.718,36.899-29.698h0.893l0.954-0.7
				c9.227-6.724,14.752-17.55,14.752-28.951c0-19.737-16.065-35.801-35.817-35.801c-0.377,0-0.761,0.004-1.142,0.023
				c-0.695-19.145-16.491-34.488-35.769-34.488c-4.671,0-9.325,0.929-13.642,2.701c-8.597-11.766-22.129-18.707-36.839-18.707
				c-16.667,0-31.819,9.025-39.835,23.342c-4.521-3.17-9.894-4.874-15.53-4.874c-14.987,0-27.171,12.187-27.171,27.166
				c0,0.799,0.036,1.591,0.119,2.396c-19.199,0.624-34.425,16.435-34.624,35.789c-0.238,23.037,11.988,32.515,43.208,31.905
				c38.544,0,76.9,0.198,76.9,0.198c6.617,8.572,16.961,14.116,28.627,14.116c0.461,0,0.907-0.051,1.364-0.07v194.941"/>
			<g>
				<path style="fill:none;stroke:#000000;stroke-width:2.7;stroke-miterlimit:10;" d="M566.844,421.741
					c0,0-10.575,1.68-15.531,7.128c-4.9,5.401-4.182,14.57-4.182,14.57"/>
				<path style="fill:none;stroke:#000000;stroke-width:2.7;stroke-miterlimit:10;" d="M554.321,426.108
					c0,0-4.464-7.801-5.589-14.45c-1.174-6.931,3.989-12.979,3.989-12.979"/>
			</g>
			<g>
				<path style="fill:none;stroke:#000000;stroke-width:2.7;stroke-miterlimit:10;" d="M528.979,429.017c0,0-8.005,1.796-11.529,6.2
					c-3.485,4.368-2.494,11.343-2.494,11.343"/>
				<path style="fill:none;stroke:#000000;stroke-width:2.7;stroke-miterlimit:10;" d="M514.547,440.914
					c0,0-8.557-8.098-8.233-14.833c0.32-6.64,2.968-12.048,2.968-12.048"/>
			</g>
			<path style="fill:none;stroke:#000000;stroke-width:2.7;stroke-miterlimit:10;" d="M560.55,467.955c0,0-4.49-12.187-19.999-6.191
				c-10.014,3.867-8.864,14.525-8.864,14.525"/>
			<path style="fill:none;stroke:#000000;stroke-width:2.7;stroke-miterlimit:10;" d="M604.826,467.831
				c0,0-15.713-0.069-15.481,20.044c0.147,12.985,11.138,17.781,11.138,17.781"/>
			<path style="fill:none;stroke:#000000;stroke-width:2.7;stroke-miterlimit:10;" d="M699.006,440.556
				c0,0-14.145-14.803-36.465-3.896c-16.981,8.297-11.509,27.66-11.509,27.66"/>
			<g>
				<path style="fill:none;stroke:#000000;stroke-width:2.7;stroke-miterlimit:10;" d="M635.085,397.781
					c0,0-3.563-0.285-14.321,5.13c-15.532,7.816-20.688,28.469-20.688,28.469"/>
				<path style="fill:none;stroke:#000000;stroke-width:2.7;stroke-miterlimit:10;" d="M586.283,436.266
					c0,0,8.943-6.603,15.642-5.791c6.597,0.806,13.323,7.766,13.323,7.766"/>
			</g>
		</g>
		<g>
			<path style="fill:none;stroke:#000000;stroke-width:2.7;stroke-miterlimit:10;" d="M622.713,412.298
				c13.14-12.457,35.553-6.648,40.916,10.686"/>
			<path style="fill:none;stroke:#000000;stroke-width:2.7;stroke-miterlimit:10;" d="M617.34,419.705
				c0.665-1.398,1.46-2.736,2.377-3.985"/>
		</g>
		<g>
			<path style="fill:none;stroke:#000000;stroke-width:2.7;stroke-miterlimit:10;" d="M486.265,481.768
				c-12.456-13.139-6.647-35.553,10.685-40.914"/>
			<path style="fill:none;stroke:#000000;stroke-width:2.7;stroke-miterlimit:10;" d="M493.672,487.142
				c-1.398-0.664-2.736-1.46-3.984-2.376"/>
		</g>
	</g>
	
		<line style="fill:none;stroke:#000000;stroke-width:2.7;stroke-miterlimit:10;" x1="656.841" y1="587.057" x2="656.841" y2="599.042"/>
	<path style="fill:#26BDCF;" d="M342.057,652.146c-2.696,9.065-12.234,14.231-21.298,11.536
		c-9.072-2.693-14.336-12.772-11.783-24.689c1.983-9.253,12.169-6.867,21.541-8.152
		C341.826,629.292,344.752,643.073,342.057,652.146z"/>
	<g>
		<g>
			
				<line style="fill:#FFFFFF;stroke:#000000;stroke-width:2.5;stroke-miterlimit:10;" x1="273.534" y1="713.24" x2="237.634" y2="713.24"/>
			
				<line style="fill:#FFFFFF;stroke:#000000;stroke-width:2.5;stroke-miterlimit:10;" x1="293.644" y1="713.24" x2="285.433" y2="713.24"/>
		</g>
		<g>
			
				<line style="fill:#FFFFFF;stroke:#000000;stroke-width:2.5;stroke-miterlimit:10;" x1="357.295" y1="713.24" x2="365.505" y2="713.24"/>
		</g>
		<g>
			
				<line style="fill:#FFFFFF;stroke:#000000;stroke-width:2.5;stroke-miterlimit:10;" x1="321.344" y1="717.235" x2="329.554" y2="717.235"/>
		</g>
		<g>
			
				<rect x="288.47" y="601.679" transform="matrix(0.9338 -0.3577 0.3577 0.9338 -200.0387 152.8652)" style="fill:#FFFFFF;stroke:#000000;stroke-width:2.5;stroke-miterlimit:10;" width="49.37" height="30.864"/>
			
				<rect x="275.691" y="619.563" transform="matrix(0.9338 -0.3578 0.3578 0.9338 -206.1558 142.8935)" style="fill:#FFFFFF;stroke:#000000;stroke-width:2.5;stroke-miterlimit:10;" width="14.808" height="18.048"/>
			
				<rect x="267.108" y="621.363" transform="matrix(0.9338 -0.3577 0.3577 0.9338 -208.4222 139.1604)" style="fill:#FFFFFF;stroke:#000000;stroke-width:2.5;stroke-miterlimit:10;" width="9.613" height="23.089"/>
			
				<rect x="333.911" y="581.619" transform="matrix(0.9338 -0.3578 0.3578 0.9338 -192.3229 165.7678)" style="fill:#FFFFFF;stroke:#000000;stroke-width:2.5;stroke-miterlimit:10;" width="35.841" height="42.049"/>
			
				<rect x="367.655" y="567.979" transform="matrix(0.9338 -0.3577 0.3577 0.9338 -187.416 173.2504)" style="fill:#FFFFFF;stroke:#000000;stroke-width:2.5;stroke-miterlimit:10;" width="13.96" height="50.566"/>
		</g>
		<g>
			<g>
				<g>
					<path style="fill:#FFFFFF;stroke:#000000;stroke-width:2.5;" d="M341.536,641.494c-2.696,9.065-12.234,14.231-21.299,11.536
						c-9.072-2.694-14.237-12.23-11.542-21.3c2.699-9.067,12.232-14.237,21.3-11.54C339.064,622.89,344.231,632.42,341.536,641.494z
						"/>
				</g>
				<g>
					<path style="fill:#FFFFFF;stroke:#000000;stroke-width:2.5;" d="M334.195,639.31c-1.491,5.014-6.765,7.872-11.777,6.383
						c-5.018-1.49-7.873-6.765-6.382-11.782c1.492-5.014,6.764-7.871,11.779-6.379C332.829,629.021,335.686,634.293,334.195,639.31z
						"/>
				</g>
			</g>
			<g>
				
					<line style="fill:#FFFFFF;stroke:#000000;stroke-width:2.5;stroke-miterlimit:10;" x1="325.115" y1="652.266" x2="325.115" y2="716.125"/>
				<g>
					
						<line style="fill:#FFFFFF;stroke:#000000;stroke-width:2.5;stroke-miterlimit:10;" x1="314.63" y1="649.09" x2="291.252" y2="713.24"/>
					
						<line style="fill:#FFFFFF;stroke:#000000;stroke-width:2.5;stroke-miterlimit:10;" x1="335.601" y1="649.09" x2="358.978" y2="713.24"/>
				</g>
			</g>
		</g>
	</g>
	<g>
		<g>
			<rect x="977.727" y="539.204" style="fill:#26BDCF;stroke:#000000;stroke-width:2.5;" width="6.074" height="87.2"/>
			<line style="fill:none;stroke:#000000;stroke-width:2.5;" x1="964.792" y1="626.85" x2="996.736" y2="626.85"/>
		</g>
		<g>
			<polygon style="fill:#26BDCF;stroke:#000000;stroke-width:2.5;" points="1019.773,551.2 946.05,551.2 946.05,568.943 
				1019.773,568.943 1028.918,560.069 			"/>
			<g>
				<rect x="968.337" y="559.759" style="fill:none;stroke:#000000;stroke-width:2.5;" width="42.394" height="0.626"/>
				<rect x="956.416" y="559.759" style="fill:none;stroke:#000000;stroke-width:2.5;" width="3.974" height="0.626"/>
			</g>
		</g>
		<g>
			<polygon style="fill:#26BDCF;stroke:#000000;stroke-width:2.5;" points="941.756,576.183 1015.479,576.183 1015.479,593.925 
				941.756,593.925 932.611,585.054 			"/>
			<g>
				<rect x="950.797" y="584.742" style="fill:none;stroke:#000000;stroke-width:2.5;" width="42.393" height="0.624"/>
				<rect x="1001.139" y="584.742" style="fill:#26BDCF;stroke:#000000;stroke-width:2.5;" width="3.973" height="0.624"/>
			</g>
		</g>
	</g>
	<g>
		<g>
			<defs>
				<path id="SVGID_1_" d="M885.318,475.336c0,15.449-12.524,27.975-27.974,27.975c-15.45,0-27.975-12.526-27.975-27.975
					c0-15.45,12.524-27.975,27.975-27.975C872.794,447.36,885.318,459.886,885.318,475.336z"/>
			</defs>
			<use xlink:href="#SVGID_1_"  style="overflow:visible;fill:#23BED0;"/>
			<clipPath id="SVGID_00000034048146925072914710000013691394877633131681_">
				<use xlink:href="#SVGID_1_"  style="overflow:visible;"/>
			</clipPath>
			<g style="clip-path:url(#SVGID_00000034048146925072914710000013691394877633131681_);">
				<path style="fill:#FFFFFF;stroke:#000000;stroke-width:3;stroke-miterlimit:10;" d="M867.754,470.111
					c0,5.749-4.661,10.409-10.409,10.409c-5.75,0-10.411-4.661-10.411-10.409c0-5.749,4.661-10.409,10.411-10.409
					C863.093,459.702,867.754,464.362,867.754,470.111z"/>
				<path style="fill:#FFFFFF;stroke:#000000;stroke-width:3;stroke-miterlimit:10;" d="M875.56,518.4
					c0,5.27-4.271,9.542-9.542,9.542H848.67c-5.271,0-9.543-4.271-9.543-9.542v-28.406c0-5.271,4.272-9.543,9.543-9.543h17.348
					c5.271,0,9.542,4.271,9.542,9.543V518.4z"/>
				<g>
					
						<line style="fill:#23BED0;stroke:#000000;stroke-width:3;stroke-miterlimit:10;" x1="847.585" y1="489.884" x2="847.585" y2="522.738"/>
					
						<line style="fill:#23BED0;stroke:#000000;stroke-width:3;stroke-miterlimit:10;" x1="867.102" y1="489.884" x2="867.102" y2="522.738"/>
				</g>
			</g>
		</g>
	</g>
	<g>
		<g>
			<defs>
				<path id="SVGID_00000054225053757188350360000012089726330031235756_" d="M445.252,713.877
					c0,15.451-12.525,27.977-27.974,27.977c-15.45,0-27.975-12.525-27.975-27.977c0-15.449,12.525-27.975,27.975-27.975
					C432.727,685.902,445.252,698.428,445.252,713.877z"/>
			</defs>
			<use xlink:href="#SVGID_00000054225053757188350360000012089726330031235756_"  style="overflow:visible;fill:#23BED0;"/>
			<clipPath id="SVGID_00000037667203125591928340000015914920904381955501_">
				<use xlink:href="#SVGID_00000054225053757188350360000012089726330031235756_"  style="overflow:visible;"/>
			</clipPath>
			<g style="clip-path:url(#SVGID_00000037667203125591928340000015914920904381955501_);">
				<path style="fill:#FFFFFF;stroke:#000000;stroke-width:3;stroke-miterlimit:10;" d="M427.687,708.652
					c0,5.748-4.661,10.409-10.409,10.409c-5.75,0-10.41-4.661-10.41-10.409c0-5.749,4.661-10.409,10.41-10.409
					C423.026,698.243,427.687,702.903,427.687,708.652z"/>
				<path style="fill:#FFFFFF;stroke:#000000;stroke-width:3;stroke-miterlimit:10;" d="M435.493,756.942
					c0,5.268-4.271,9.541-9.541,9.541h-17.348c-5.27,0-9.543-4.273-9.543-9.541v-28.407c0-5.273,4.273-9.542,9.543-9.542h17.348
					c5.27,0,9.541,4.269,9.541,9.542V756.942z"/>
				<g>
					
						<line style="fill:#23BED0;stroke:#000000;stroke-width:3;stroke-miterlimit:10;" x1="407.519" y1="728.425" x2="407.519" y2="761.28"/>
					
						<line style="fill:#23BED0;stroke:#000000;stroke-width:3;stroke-miterlimit:10;" x1="427.036" y1="728.425" x2="427.036" y2="761.28"/>
				</g>
			</g>
		</g>
	</g>
</g>
</svg>
